<?xml version="1.0" encoding="UTF-8"?>
<svg xmlns="http://www.w3.org/2000/svg" viewBox="0 0 64 64" width="64" height="64">
  <defs>
    <linearGradient id="g" x1="0" y1="0" x2="1" y2="1">
      <stop offset="0%" stop-color="#e91e63"/>
      <stop offset="100%" stop-color="#3b82f6"/>
    </linearGradient>
  </defs>
  <!-- cloud outline -->
  <g fill="none" stroke="url(#g)" stroke-width="3" stroke-linecap="round" stroke-linejoin="round">
    <path d="M16 36c-4-1-6-5-5-9 1-5 6-9 12-8 0-6 6-10 12-8 5 2 8 7 7 12 6 0 9 5 8 9-1 4-5 7-10 7H16z" />
  </g>
  <!-- raindrops -->
  <g fill="url(#g)" stroke="none">
    <path d="M22 46c0 3 2 5 4 5s4-2 4-5-3-6-4-6-4 3-4 6z" />
    <path d="M32 50c0 2 1 3 3 3s3-1 3-3-2-4-3-4-3 2-3 4z" />
    <path d="M40 46c0 3 2 5 4 5s4-2 4-5-3-6-4-6-4 3-4 6z" />
  </g>
</svg>
